<?xml version="1.0" standalone="no"?>
<!DOCTYPE svg PUBLIC "-//W3C//DTD SVG 20010904//EN"
 "http://www.w3.org/TR/2001/REC-SVG-20010904/DTD/svg10.dtd">
<svg version="1.0" xmlns="http://www.w3.org/2000/svg"
 width="600.000000pt" height="600.000000pt" viewBox="0 0 600.000000 600.000000"
 preserveAspectRatio="xMidYMid meet">
<metadata>
Created by potrace 1.14, written by Peter Selinger 2001-2017
</metadata>
<g transform="translate(0.000000,600.000000) scale(0.100000,-0.100000)"
fill="#000000" stroke="none">
<path d="M3411 4069 c-231 -50 -406 -153 -574 -339 -80 -87 -122 -148 -170
-245 -69 -140 -107 -306 -107 -471 l0 -93 73 32 c39 19 127 53 194 78 l122 44
6 50 c27 198 166 409 338 513 190 115 431 121 643 17 82 -40 187 -118 227
-170 l28 -35 219 0 c121 0 220 2 220 5 0 20 -79 156 -130 223 -142 189 -337
315 -590 384 -116 31 -373 35 -499 7z"/>
<path d="M1430 2983 c0 -581 4 -1043 9 -1037 4 5 30 41 56 79 75 110 167 225
249 312 l76 81 0 186 0 186 236 0 236 0 57 34 c31 19 82 47 114 62 l57 28 0
118 0 118 -350 0 -350 0 0 255 0 255 370 0 370 0 0 185 0 185 -565 0 -565 0 0
-1047z"/>
<path d="M3845 3200 c-1046 -88 -1812 -483 -2324 -1198 -45 -63 -81 -118 -81
-123 0 -5 229 -9 560 -9 l560 0 0 180 0 180 -142 0 -142 0 35 36 c43 45 208
189 273 237 l49 37 43 -80 c156 -291 433 -502 744 -567 93 -20 341 -22 425 -4
152 32 298 92 420 174 127 85 287 273 340 400 l15 37 -216 0 -217 0 -81 -78
c-127 -122 -295 -192 -461 -192 -121 0 -277 49 -377 118 -58 40 -150 135 -195
202 -38 57 -92 174 -93 201 0 35 402 210 642 279 436 124 794 155 1358 116
l75 -5 -79 14 c-186 33 -375 47 -701 50 -181 2 -375 0 -430 -5z"/>
<path d="M5073 3133 c9 -2 25 -2 35 0 9 3 1 5 -18 5 -19 0 -27 -2 -17 -5z"/>
<path d="M5138 3123 c6 -2 18 -2 25 0 6 3 1 5 -13 5 -14 0 -19 -2 -12 -5z"/>
<path d="M5198 3113 c7 -3 16 -2 19 1 4 3 -2 6 -13 5 -11 0 -14 -3 -6 -6z"/>
</g>
</svg>
